<svg width="24" height="24" viewBox="0 0 24 24" fill="none" xmlns="http://www.w3.org/2000/svg">
<path d="M12 7C12 6.44771 11.5523 6 11 6L4 6C3.44771 6 3 6.44771 3 7C3 7.55229 3.44771 8 4 8L11 8C11.5523 8 12 7.55228 12 7ZM21 12C21 11.4477 20.5523 11 20 11L4 11C3.44772 11 3 11.4477 3 12C3 12.5523 3.44771 13 4 13L20 13C20.5523 13 21 12.5523 21 12ZM21 17C21 16.4477 20.5523 16 20 16L13 16C12.4477 16 12 16.4477 12 17C12 17.5523 12.4477 18 13 18L20 18C20.5523 18 21 17.5523 21 17Z" fill="#FAFAFA"/>
</svg>
