<svg width="24" height="24" viewBox="0 0 24 24" fill="none" xmlns="http://www.w3.org/2000/svg">
<path d="M5.32031 1.98022V19.5148C5.32031 20.1792 5.58423 20.8163 6.05399 21.2861C6.52376 21.7559 7.1609 22.0198 7.82526 22.0198H16.1751C16.8394 22.0198 17.4766 21.7559 17.9463 21.2861C18.4161 20.8163 18.68 20.1792 18.68 19.5148V1.98022H5.32031ZM17.01 3.65019V15.3399H6.99028V3.65019H17.01ZM16.1751 20.3498H7.82526C7.60381 20.3498 7.39142 20.2618 7.23484 20.1053C7.07825 19.9487 6.99028 19.7363 6.99028 19.5148V17.0099H17.01V19.5148C17.01 19.7363 16.9221 19.9487 16.7655 20.1053C16.6089 20.2618 16.3965 20.3498 16.1751 20.3498Z" fill="#727272"/>
<path d="M12.835 17.8442H11.165V19.5142H12.835V17.8442Z" fill="#727272"/>
</svg>
