<svg width="24" height="24" viewBox="0 0 24 24" fill="none" xmlns="http://www.w3.org/2000/svg">
<path fill-rule="evenodd" clip-rule="evenodd" d="M3.52117 2.57959C4.04145 2.57959 4.46323 3.00137 4.46323 3.52165V7.28991H8.23148C8.75177 7.28991 9.17355 7.71169 9.17355 8.23197C9.17355 8.75226 8.75177 9.17404 8.23148 9.17404H3.52117C3.00088 9.17404 2.5791 8.75226 2.5791 8.23197V3.52165C2.5791 3.00137 3.00088 2.57959 3.52117 2.57959Z" fill="#727272"/>
<path fill-rule="evenodd" clip-rule="evenodd" d="M11.4059 2.60955C13.5141 2.47732 15.6055 3.05745 17.3444 4.25676C19.0832 5.45608 20.3685 7.20499 20.9939 9.22262C21.6193 11.2403 21.5485 13.4095 20.7927 15.382C20.037 17.3546 18.6403 19.0159 16.8269 20.0992C15.0135 21.1825 12.8887 21.6249 10.7936 21.3554C8.69856 21.0858 6.75486 20.12 5.27469 18.613C3.79452 17.106 2.86376 15.1453 2.63191 13.0458C2.5748 12.5286 2.94773 12.0631 3.46487 12.006C3.98202 11.9489 4.44754 12.3218 4.50465 12.839C4.69014 14.5186 5.43474 16.0872 6.61888 17.2928C7.80301 18.4984 9.35797 19.271 11.034 19.4866C12.7101 19.7022 14.41 19.3483 15.8607 18.4817C17.3114 17.615 18.4288 16.286 19.0333 14.708C19.6379 13.13 19.6946 11.3945 19.1943 9.78044C18.694 8.16634 17.6657 6.76721 16.2746 5.80775C14.8836 4.8483 13.2104 4.3842 11.5238 4.48998C9.83786 4.59573 8.2363 5.26485 6.97621 6.38992C6.97579 6.3903 6.97537 6.39067 6.97495 6.39105L4.15138 8.93227C3.76465 9.28032 3.169 9.24897 2.82094 8.86225C2.47289 8.47552 2.50424 7.87986 2.89097 7.53181L5.71978 4.98588C7.29513 3.57869 9.29771 2.74178 11.4059 2.60955Z" fill="#727272"/>
<path fill-rule="evenodd" clip-rule="evenodd" d="M11.5915 7.10571C12.1118 7.10571 12.5335 7.52749 12.5335 8.04778V12.1759L15.781 13.7996C16.2464 14.0323 16.435 14.5982 16.2023 15.0635C15.9697 15.5289 15.4038 15.7175 14.9384 15.4848L11.1702 13.6007C10.851 13.4411 10.6494 13.1149 10.6494 12.7581V8.04778C10.6494 7.52749 11.0712 7.10571 11.5915 7.10571Z" fill="#727272"/>
</svg>
