<svg width="26" height="29" viewBox="0 0 26 29" fill="none" xmlns="http://www.w3.org/2000/svg">
<path d="M21.3376 12.0773C21.273 12.0053 21.2084 11.8612 21.1437 11.8612L13.3878 4.65657C13.2585 4.51248 13.1292 4.44043 13 4.44043C12.8707 4.44043 12.6768 4.51248 12.6122 4.58452L4.85619 11.7891C4.79156 11.8612 4.72692 11.9332 4.66229 12.0053C4.59766 12.0773 4.59766 12.2214 4.59766 12.2935V23.8208C4.59766 24.037 4.66229 24.1811 4.79156 24.3252C4.92082 24.4692 5.05009 24.5413 5.24399 24.5413H20.7559C20.9498 24.5413 21.0791 24.4692 21.2084 24.3252C21.3376 24.1811 21.4023 23.9649 21.4023 23.8208V12.3655C21.4023 12.2935 21.4023 12.1494 21.3376 12.0773ZM16.2316 21.7315H9.76831V18.1292C9.76831 17.1926 10.0915 16.256 10.7378 15.6076C11.3195 14.9592 12.1597 14.5269 13 14.5269C13.8402 14.5269 14.6804 14.8871 15.2621 15.6076C15.8438 16.256 16.2316 17.1926 16.2316 18.1292V21.7315Z" fill="#FAFAFA"/>
</svg>
