<svg width="24" height="24" viewBox="0 0 24 24" fill="none" xmlns="http://www.w3.org/2000/svg">
<path fill-rule="evenodd" clip-rule="evenodd" d="M13.6787 4.44404C13.6787 3.98037 14.0546 3.60449 14.5183 3.60449H17.8765C18.5445 3.60449 19.1851 3.86985 19.6574 4.34219C20.1298 4.81453 20.3951 5.45516 20.3951 6.12314V17.8769C20.3951 18.5448 20.1298 19.1855 19.6574 19.6578C19.1851 20.1301 18.5445 20.3955 17.8765 20.3955H14.5183C14.0546 20.3955 13.6787 20.0196 13.6787 19.556C13.6787 19.0923 14.0546 18.7164 14.5183 18.7164H17.8765C18.0991 18.7164 18.3127 18.628 18.4701 18.4705C18.6276 18.3131 18.716 18.0995 18.716 17.8769V6.12314C18.716 5.90048 18.6276 5.68694 18.4701 5.52949C18.3127 5.37205 18.0991 5.28359 17.8765 5.28359H14.5183C14.0546 5.28359 13.6787 4.90771 13.6787 4.44404Z" fill="#727272"/>
<path fill-rule="evenodd" clip-rule="evenodd" d="M9.23555 16.7917C8.90768 17.1196 8.37611 17.1196 8.04824 16.7917L3.85049 12.5939C3.52262 12.2661 3.52262 11.7345 3.85049 11.4066L8.04824 7.20889C8.37611 6.88102 8.90768 6.88102 9.23555 7.20889C9.56341 7.53675 9.56341 8.06833 9.23555 8.39619L5.63144 12.0003L9.23555 15.6044C9.56341 15.9323 9.56341 16.4638 9.23555 16.7917Z" fill="#727272"/>
<path fill-rule="evenodd" clip-rule="evenodd" d="M15.3584 12.0003C15.3584 12.464 14.9825 12.8398 14.5188 12.8398L4.44424 12.8398C3.98057 12.8398 3.60469 12.464 3.60469 12.0003C3.60469 11.5366 3.98057 11.1607 4.44424 11.1607L14.5188 11.1607C14.9825 11.1607 15.3584 11.5366 15.3584 12.0003Z" fill="#727272"/>
</svg>
