<svg width="24" height="24" viewBox="0 0 24 24" fill="none" xmlns="http://www.w3.org/2000/svg">
<path d="M13.8858 16.377C16.446 16.6576 18.5032 15.6802 20.041 13.732C19.9717 14.5348 19.7899 15.32 19.502 16.0889L19.5017 16.0898C18.2148 19.5418 14.9476 21.8107 11.2568 21.8176C6.78639 21.8243 2.97311 18.3981 2.51251 13.9537L2.51246 13.9532C2.00278 9.06687 5.46823 4.78769 10.3343 4.27078C10.4233 4.2619 10.5101 4.25323 10.5955 4.24515C10.5518 4.2829 10.507 4.32143 10.4612 4.36071C10.0188 4.74064 9.49298 5.19223 9.11544 5.71844C7.61536 7.78668 7.39835 10.1088 8.43539 12.4122C9.47317 14.7248 11.3586 16.0973 13.8851 16.3769L13.8858 16.377Z" stroke="#727272" stroke-width="1.4"/>
<path d="M13.1307 10.2147L13.0907 10.1846C13.0102 10.2916 12.9666 10.4219 12.9666 10.5559V10.6148C12.9666 10.9231 13.2165 11.173 13.5249 11.173C13.581 11.173 13.6361 11.1646 13.6886 11.1485C13.7384 11.1644 13.7915 11.173 13.8467 11.173H16.8447C17.1312 11.173 17.3635 10.9408 17.3635 10.6543C17.3635 10.3678 17.1312 10.1355 16.8447 10.1355H14.5847L17.1355 6.74898C17.2138 6.64515 17.2561 6.51868 17.2561 6.38869V6.36109C17.2561 6.0456 17.0003 5.78984 16.6848 5.78984C16.6136 5.78984 16.544 5.80314 16.4792 5.82814C16.4187 5.80345 16.3525 5.78984 16.2832 5.78984H13.5439C13.2574 5.78984 13.0252 6.0221 13.0252 6.3086C13.0252 6.59509 13.2574 6.82735 13.5439 6.82735H15.6187L13.0907 10.1846L13.1307 10.2147Z" fill="#727272" stroke="#727272" stroke-width="0.1"/>
<path d="M20.3852 2.16294C20.3425 2.16294 20.3007 2.16948 20.2609 2.18192C20.2232 2.1696 20.183 2.16294 20.1412 2.16294H18.4767C18.2642 2.16294 18.0919 2.33524 18.0919 2.54778C18.0919 2.76031 18.2642 2.93261 18.4767 2.93261H19.5978L18.1457 4.86116C18.0876 4.93825 18.0562 5.03212 18.0562 5.12862V5.16443C18.0562 5.39022 18.2393 5.57327 18.4651 5.57327C18.4989 5.57327 18.5321 5.56909 18.5642 5.56108C18.595 5.56903 18.6273 5.57327 18.6606 5.57327H20.4824C20.6949 5.57327 20.8672 5.40097 20.8672 5.18843C20.8672 4.97589 20.6949 4.8036 20.4824 4.8036H19.2487L20.7147 2.85726C20.7713 2.7821 20.802 2.69055 20.802 2.59645V2.57967C20.802 2.34952 20.6154 2.16294 20.3852 2.16294Z" fill="#727272" stroke="#727272" stroke-width="0.2"/>
</svg>
