<svg width="24" height="24" viewBox="0 0 24 24" fill="none" xmlns="http://www.w3.org/2000/svg">
<path fill-rule="evenodd" clip-rule="evenodd" d="M12.05 5.03818C13.15 3.83818 14.75 3.13818 16.55 3.13818C19.95 3.13818 22.75 5.93818 22.75 9.43818C22.75 12.5382 20.95 15.3382 18.85 17.4382C16.75 19.6382 14.15 21.2382 12.25 21.8382C12.05 21.9382 11.95 21.9382 11.75 21.8382C9.85 21.2382 7.25 19.5382 5.15 17.4382C3.05 15.2382 1.25 12.4382 1.25 9.43818C1.25 5.93818 4.05 3.13818 7.55 3.13818C9.25 3.13818 10.85 3.83818 12.05 5.03818ZM15.808 9.21612L12.992 12.0321L15.872 14.8481C16 14.9761 16.064 15.1681 16.064 15.3601C16.064 15.5521 16 15.7441 15.872 15.8721C15.744 16.0001 15.552 16.0641 15.36 16.0641C15.168 16.0641 14.976 16.0001 14.848 15.8721L12.032 13.0561L9.216 15.8721C8.896 16.1281 8.448 16.1281 8.192 15.8721C7.936 15.5521 7.936 15.1041 8.192 14.8481L11.008 12.0321L8.192 9.21612C7.936 8.89612 7.936 8.44812 8.192 8.19212C8.448 7.93612 8.96 7.93612 9.216 8.19212L12.032 11.0081L14.784 8.19212C15.104 7.93612 15.552 7.93612 15.808 8.19212C15.936 8.32012 16 8.51212 16 8.70412C16 8.89612 15.936 9.08812 15.808 9.21612Z" fill="#727272"/>
</svg>
