<svg width="24" height="24" viewBox="0 0 24 24" fill="none" xmlns="http://www.w3.org/2000/svg">
<path d="M14.7486 14.5097C13.9289 16.2803 12.9854 17.992 11.7889 19.5482C11.3382 20.1513 10.7583 20.6578 10.1839 21.2019C9.87783 21.4767 9.50694 21.5688 9.06576 21.4405C8.66221 21.3067 8.23192 21.2537 7.7531 21.1309C7.96662 20.2163 8.18013 19.3018 8.39909 18.4248C7.67954 19.0284 6.92781 19.675 6.21371 20.3161C6.21371 20.3161 6.17063 20.284 6.12756 20.2518C6.56143 19.2669 6.9953 18.2821 7.42917 17.2972C7.42917 17.2972 7.3861 17.265 7.38065 17.2274C7.31627 17.3136 7.24645 17.3621 7.14443 17.4537C6.36051 18.1434 5.60877 18.79 4.82485 19.4797C4.72828 19.6089 4.57774 19.6307 4.4 19.4643C4.04994 19.1691 3.70533 18.9116 3.36072 18.6541C3.73612 18.0619 4.08478 17.5504 4.46018 16.9582C3.912 17.1528 3.40147 17.3419 2.85874 17.574C2.60619 17.6874 2.47696 17.5908 2.3314 17.3814C1.96455 16.7044 1.74824 16.0057 1.63394 15.2154C4.04698 14.367 5.75402 12.6217 7.33182 10.7798C7.98651 9.99355 8.68973 9.27712 9.68406 8.97963C11.3825 8.50346 12.8888 8.82349 14.0741 10.112C15.2218 11.406 15.4395 12.9114 14.7486 14.5097Z" fill="#727272"/>
<path d="M19.6523 5.11729C18.3108 6.73288 16.8776 8.24646 15.4177 9.84075C14.6953 8.83102 13.7853 8.11739 12.6177 7.74837C12.6766 7.62458 12.7034 7.54387 12.7678 7.45772C13.7974 5.8104 14.7894 4.16853 15.819 2.52121C16.3445 1.63838 17.2472 1.23887 18.194 1.40931C19.8939 1.73977 20.7686 3.80323 19.6523 5.11729Z" fill="#727272"/>
<path d="M20.1164 18.6894C20.2524 19.6302 19.6141 20.5294 18.6732 20.6654C17.77 20.7961 16.8709 20.1577 16.7403 19.2545C16.6042 18.3137 17.2425 17.4145 18.1888 17.3161C19.1242 17.1424 19.9427 17.754 20.1164 18.6894Z" fill="#727272"/>
<path d="M16.1454 17.266C16.2053 17.68 15.9532 18.0622 15.5392 18.1221C15.1253 18.1819 14.7 17.8977 14.6777 17.4783C14.6233 17.1019 14.913 16.7142 15.327 16.6544C15.7355 16.5569 16.0856 16.852 16.1454 17.266Z" fill="#727272"/>
<path d="M15.8343 20.1542C15.8833 20.4929 15.6956 20.789 15.3623 20.8756C15.0236 20.9246 14.6844 20.7047 14.6355 20.366C14.5865 20.0273 14.8494 19.7203 15.1505 19.6768C15.4461 19.5956 15.7853 19.8155 15.8343 20.1542Z" fill="#727272"/>
</svg>
