<svg width="26" height="26" viewBox="0 0 26 26" fill="none" xmlns="http://www.w3.org/2000/svg">
<mask id="path-1-inside-1_100_6406" fill="white">
<rect x="8.82812" y="21.4741" width="16.9482" height="13.44" rx="1" transform="rotate(-90 8.82812 21.4741)"/>
</mask>
<rect x="8.82812" y="21.4741" width="16.9482" height="13.44" rx="1" transform="rotate(-90 8.82812 21.4741)" stroke="#727272" stroke-width="3.2" mask="url(#path-1-inside-1_100_6406)"/>
<path d="M18.0978 9.70584C17.8694 9.55721 17.0319 9.11133 16.4229 9.40859C16.1945 9.55721 16.0422 9.70584 15.8899 9.85447C15.7377 10.0774 15.6615 10.3004 15.6615 10.5976L15.6615 12.9756C15.357 12.7527 15.0525 12.6784 14.748 12.6784C13.606 12.6784 12.6924 13.5702 12.6924 14.6849C12.6924 15.7996 13.606 16.6913 14.748 16.6913C15.8899 16.6913 16.8035 15.7996 16.8035 14.6849L16.8035 14.6105C16.8035 14.6105 16.8035 14.6105 16.8035 14.5362L16.8035 10.5976C16.8035 10.5233 16.8035 10.5233 16.8797 10.449C16.8797 10.3747 16.9558 10.3747 16.9558 10.3747C17.0319 10.3747 17.4126 10.449 17.641 10.5976C17.8694 10.7462 18.25 10.6719 18.4023 10.449C18.4023 10.226 18.3262 9.85447 18.0978 9.70584ZM14.748 15.5766C14.215 15.5766 13.7582 15.2051 13.7582 14.6849C13.7582 14.1647 14.215 13.7188 14.748 13.7188C15.2809 13.7188 15.7377 14.1647 15.7377 14.6849C15.7377 15.2051 15.2048 15.5766 14.748 15.5766Z" fill="#727272"/>
<line x1="6.46855" y1="18.9341" x2="6.46855" y2="7.06564" stroke="#727272" stroke-width="1.6" stroke-linecap="round"/>
<path d="M3.73242 16.5598L3.7327 9.44017" stroke="#727272" stroke-width="1.6" stroke-linecap="round"/>
</svg>
