<svg width="26" height="26" viewBox="0 0 26 26" fill="none" xmlns="http://www.w3.org/2000/svg">
<path d="M13.0922 5.3834C8.73525 5.3834 5.15429 8.90884 5.15429 13.2946V14.4169C4.73438 14.4692 4.4166 14.8469 4.4166 15.2945V17.6457C4.4166 18.1281 4.78587 18.5294 5.25429 18.5294H5.52313V18.6253C5.52313 19.647 6.30699 20.4887 7.28293 20.4887C8.25888 20.4887 9.04273 19.647 9.04273 18.6253V14.3148C9.04273 13.2932 8.25888 12.4515 7.28293 12.4515C7.00107 12.4515 6.73596 12.5235 6.50079 12.6487C6.82887 9.35631 9.62687 6.75898 13.0922 6.75898C16.6012 6.75898 19.4256 9.42221 19.6943 12.7736C19.416 12.5728 19.0814 12.4515 18.7171 12.4515C17.7412 12.4515 16.9573 13.2932 16.9573 14.3148V18.6253C16.9573 19.647 17.7412 20.4887 18.7171 20.4887C19.6931 20.4887 20.4769 19.647 20.4769 18.6253V18.5294H20.7457C21.2142 18.5294 21.5834 18.1281 21.5834 17.6457V15.2945C21.5834 14.9146 21.3546 14.5895 21.0302 14.4659V13.2946C21.0302 8.90884 17.4492 5.3834 13.0922 5.3834Z" fill="#727272" stroke="#727272" stroke-width="0.2"/>
</svg>
