<svg width="24" height="24" viewBox="0 0 24 24" fill="none" xmlns="http://www.w3.org/2000/svg">
<mask id="mask0_100_6466" style="mask-type:alpha" maskUnits="userSpaceOnUse" x="0" y="0" width="24" height="24">
<rect width="24" height="24" fill="#D9D9D9"/>
</mask>
<g mask="url(#mask0_100_6466)">
<path fill-rule="evenodd" clip-rule="evenodd" d="M11.9997 20.1442C16.4977 20.1442 20.144 16.4979 20.144 12C20.144 7.50201 16.4977 3.85571 11.9997 3.85571C7.50177 3.85571 3.85547 7.50201 3.85547 12C3.85547 16.4979 7.50177 20.1442 11.9997 20.1442ZM9.75192 8.76217C9.47855 8.4888 9.03534 8.4888 8.76197 8.76217C8.4886 9.03553 8.4886 9.47875 8.76197 9.75212L11.0098 11.9999L8.76197 14.2477C8.4886 14.5211 8.4886 14.9643 8.76197 15.2377C9.03534 15.511 9.47855 15.511 9.75192 15.2377L11.9997 12.9899L14.2475 15.2376C14.5209 15.511 14.9641 15.511 15.2374 15.2376C15.5108 14.9643 15.5108 14.5211 15.2374 14.2477L12.9897 11.9999L15.2375 9.75212C15.5108 9.47875 15.5108 9.03553 15.2375 8.76217C14.9641 8.4888 14.5209 8.4888 14.2475 8.76217L11.9997 11.01L9.75192 8.76217Z" fill="#FAFAFA"/>
</g>
</svg>
