<svg width="24" height="24" viewBox="0 0 24 24" fill="none" xmlns="http://www.w3.org/2000/svg">
<path d="M12.0002 22.1057C10.0015 22.1057 8.04769 21.513 6.38582 20.4026C4.72394 19.2922 3.42866 17.7139 2.66379 15.8673C1.89891 14.0207 1.69878 11.9888 2.08871 10.0285C2.47865 8.06816 3.44112 6.2675 4.85443 4.85419C6.26774 3.44088 8.06841 2.4784 10.0287 2.08847C11.989 1.69854 14.021 1.89867 15.8675 2.66354C17.7141 3.42842 19.2924 4.7237 20.4028 6.38557C21.5133 8.04745 22.106 10.0013 22.106 12C22.1031 14.6793 21.0374 17.2481 19.1429 19.1426C17.2483 21.0372 14.6796 22.1028 12.0002 22.1057ZM12.0002 3.57858C10.3346 3.57858 8.70645 4.07249 7.32155 4.99784C5.93666 5.9232 4.85726 7.23845 4.21986 8.77726C3.58247 10.3161 3.41569 12.0093 3.74064 13.6429C4.06558 15.2765 4.86764 16.7771 6.0454 17.9549C7.22316 19.1326 8.72371 19.9347 10.3573 20.2596C11.9909 20.5846 13.6842 20.4178 15.223 19.7804C16.7618 19.143 18.0771 18.0636 19.0024 16.6787C19.9278 15.2938 20.4217 13.6656 20.4217 12C20.4192 9.76726 19.5312 7.62666 17.9524 6.04786C16.3736 4.46907 14.233 3.58103 12.0002 3.57858Z" fill="#727272"/>
<path d="M13.684 17.8952H11.9997V12.0002H10.3154V10.3159H11.9997C12.4464 10.3159 12.8748 10.4934 13.1907 10.8092C13.5065 11.1251 13.684 11.5535 13.684 12.0002V17.8952Z" fill="#727272"/>
<path d="M12.0005 8.63116C12.6982 8.63116 13.2637 8.0656 13.2637 7.36795C13.2637 6.6703 12.6982 6.10474 12.0005 6.10474C11.3029 6.10474 10.7373 6.6703 10.7373 7.36795C10.7373 8.0656 11.3029 8.63116 12.0005 8.63116Z" fill="#727272"/>
</svg>
