<svg width="36" height="36" viewBox="0 0 36 36" fill="none" xmlns="http://www.w3.org/2000/svg">
<path d="M7.97949 2.97021V29.2721C7.97949 30.2687 8.37536 31.2244 9.08001 31.929C9.78467 32.6337 10.7404 33.0295 11.7369 33.0295H24.2616C25.2582 33.0295 26.2139 32.6337 26.9185 31.929C27.6232 31.2244 28.019 30.2687 28.019 29.2721V2.97021H7.97949ZM25.5141 5.47516V23.0098H10.4844V5.47516H25.5141ZM24.2616 30.5246H11.7369C11.4047 30.5246 11.0862 30.3926 10.8513 30.1578C10.6164 29.9229 10.4844 29.6043 10.4844 29.2721V25.5147H25.5141V29.2721C25.5141 29.6043 25.3821 29.9229 25.1473 30.1578C24.9124 30.3926 24.5938 30.5246 24.2616 30.5246Z" fill="#FAFAFA"/>
<path d="M19.252 26.7664H16.7471V29.2713H19.252V26.7664Z" fill="#FAFAFA"/>
</svg>
