<svg width="26" height="26" viewBox="0 0 26 26" fill="none" xmlns="http://www.w3.org/2000/svg">
<path d="M21.4279 14.4V13.4C21.4279 8.8 17.7279 5 13.1279 5C8.62793 5 4.82793 8.8 4.82793 13.4V14.3C4.42793 14.4 4.12793 14.8 4.12793 15.4V17.8C4.12793 18.4 4.62793 19 5.22793 19C5.32793 20.1 6.22793 21 7.22793 21C8.32793 21 9.32793 20 9.32793 18.9V14.4C9.32793 13.2 8.42793 12.3 7.22793 12.3C7.02793 12.3 6.92793 12.3 6.72793 12.4C7.22793 9.4 9.92793 7 13.0279 7C16.2279 7 18.9279 9.4 19.3279 12.4C19.1279 12.3 18.9279 12.3 18.6279 12.3C17.5279 12.3 16.5279 13.3 16.5279 14.4V18.7C16.5279 19.9 17.4279 20.8 18.6279 20.8C19.7279 20.8 20.6279 19.9 20.6279 18.8C21.2279 18.8 21.7279 18.3 21.7279 17.6V15.2C22.0279 14.9 21.8279 14.6 21.4279 14.4Z" fill="#FAFAFA"/>
</svg>
