<svg width="24" height="24" viewBox="0 0 24 24" fill="none" xmlns="http://www.w3.org/2000/svg">
<path d="M8.32241 10.8866L15.6782 7.20981M15.6782 16.7881L8.32241 13.1113M8.58805 11.999C8.58805 13.3743 7.4731 14.4893 6.09773 14.4893C4.72237 14.4893 3.60742 13.3743 3.60742 11.999C3.60742 10.6236 4.72237 9.50865 6.09773 9.50865C7.4731 9.50865 8.58805 10.6236 8.58805 11.999ZM20.3932 6.09969C20.3932 7.47505 19.2783 8.59 17.9029 8.59C16.5276 8.59 15.4126 7.47505 15.4126 6.09969C15.4126 4.72433 16.5276 3.60938 17.9029 3.60938C19.2783 3.60938 20.3932 4.72433 20.3932 6.09969ZM20.3932 17.9004C20.3932 19.2758 19.2783 20.3908 17.9029 20.3908C16.5276 20.3908 15.4126 19.2758 15.4126 17.9004C15.4126 16.5251 16.5276 15.4101 17.9029 15.4101C19.2783 15.4101 20.3932 16.5251 20.3932 17.9004Z" stroke="#727272" stroke-width="1.5" stroke-miterlimit="10" stroke-linecap="round" stroke-linejoin="round"/>
</svg>
