<svg width="24" height="24" viewBox="0 0 24 24" fill="none" xmlns="http://www.w3.org/2000/svg">
<path d="M19.0915 21.4555H17.5157V17.4821C17.5151 16.8644 17.2694 16.2721 16.8326 15.8353C16.3958 15.3985 15.8036 15.1529 15.1859 15.1522H8.81484C8.19712 15.1529 7.60488 15.3985 7.16808 15.8353C6.73129 16.2721 6.48562 16.8644 6.485 17.4821V21.4555H4.90918V17.4821C4.91043 16.4466 5.32232 15.4539 6.0545 14.7217C6.78669 13.9896 7.77938 13.5777 8.81484 13.5764H15.1859C16.2213 13.5777 17.214 13.9896 17.9462 14.7217C18.6784 15.4539 19.0903 16.4466 19.0915 17.4821V21.4555Z" fill="#727272"/>
<path d="M11.9999 12.0001C11.0649 12.0001 10.1509 11.7228 9.37348 11.2034C8.59606 10.6839 7.99013 9.94557 7.63232 9.08174C7.27451 8.21791 7.18089 7.26738 7.3633 6.35034C7.54571 5.43331 7.99596 4.59095 8.6571 3.92981C9.31825 3.26866 10.1606 2.81841 11.0776 2.636C11.9947 2.4536 12.9452 2.54721 13.809 2.90502C14.6729 3.26283 15.4112 3.86876 15.9306 4.64619C16.4501 5.42361 16.7274 6.33762 16.7274 7.27262C16.7261 8.52604 16.2276 9.72776 15.3413 10.6141C14.4551 11.5004 13.2533 11.9988 11.9999 12.0001ZM11.9999 4.12099C11.3766 4.12099 10.7672 4.30583 10.249 4.65213C9.73068 4.99844 9.32672 5.49066 9.08818 6.06654C8.84964 6.64243 8.78723 7.27612 8.90884 7.88748C9.03045 8.49883 9.33061 9.0604 9.77137 9.50116C10.2121 9.94193 10.7737 10.2421 11.3851 10.3637C11.9964 10.4853 12.6301 10.4229 13.206 10.1844C13.7819 9.94581 14.2741 9.54186 14.6204 9.02358C14.9667 8.50529 15.1516 7.89596 15.1516 7.27262C15.1516 6.43676 14.8195 5.63512 14.2285 5.04408C13.6374 4.45303 12.8358 4.12099 11.9999 4.12099Z" fill="#727272"/>
</svg>
