<svg width="14" height="14" viewBox="0 0 14 14" fill="none" xmlns="http://www.w3.org/2000/svg">
<path fill-rule="evenodd" clip-rule="evenodd" d="M12.4534 6.99991C12.4534 8.64318 11.7266 10.1167 10.5769 11.1165C9.61939 11.9491 8.36864 12.4532 7.00015 12.4532C5.63166 12.4532 4.38091 11.9491 3.42344 11.1165C2.27371 10.1167 1.54688 8.64318 1.54688 6.99991C1.54688 3.98814 3.98839 1.54663 7.00015 1.54663C10.0119 1.54663 12.4534 3.98814 12.4534 6.99991ZM8.63613 5.36392C8.63613 4.46039 7.90368 3.72794 7.00015 3.72794C6.09662 3.72794 5.36417 4.46039 5.36417 5.36392C5.36417 6.26745 6.09662 6.99991 7.00015 6.99991C7.90368 6.99991 8.63613 6.26745 8.63613 5.36392ZM7.00015 8.09056C7.93414 8.09056 8.54835 8.59043 8.98143 9.14603C9.30455 9.56057 9.19334 10.1687 8.72459 10.4064C8.20662 10.6691 7.62068 10.8172 7.00015 10.8172C6.37962 10.8172 5.79367 10.6691 5.27571 10.4064C4.80696 10.1687 4.69574 9.56057 5.01887 9.14603C5.45194 8.59043 6.06615 8.09056 7.00015 8.09056Z" fill="#727272"/>
</svg>
