<svg width="20" height="20" viewBox="0 0 20 20" fill="none" xmlns="http://www.w3.org/2000/svg">
<path d="M6.25033 3.33337C3.71902 3.33337 1.66699 5.38542 1.66699 7.91671C1.66699 12.5 7.08366 16.6667 10.0003 17.636C12.917 16.6667 18.3337 12.5 18.3337 7.91671C18.3337 5.38542 16.2816 3.33337 13.7503 3.33337C12.2002 3.33337 10.8298 4.10292 10.0003 5.28079C9.17087 4.10292 7.80045 3.33337 6.25033 3.33337Z" fill="#FAFAFA"/>
<path fill-rule="evenodd" clip-rule="evenodd" d="M1.04199 7.91671C1.04199 5.04024 3.37384 2.70837 6.25033 2.70837C7.72342 2.70837 9.05357 3.32035 10.0003 4.3023C10.9471 3.32035 12.2772 2.70837 13.7503 2.70837C16.6268 2.70837 18.9587 5.04024 18.9587 7.91671C18.9587 10.4484 17.4726 12.7861 15.7049 14.5714C13.931 16.3628 11.7662 17.7077 10.1974 18.2291C10.0695 18.2716 9.93119 18.2716 9.80323 18.2291C8.23442 17.7077 6.06967 16.3628 4.2958 14.5714C2.52801 12.7861 1.04199 10.4484 1.04199 7.91671ZM6.25033 3.95837C4.0642 3.95837 2.29199 5.73059 2.29199 7.91671C2.29199 9.9683 3.51431 12.0056 5.18402 13.6919C6.76835 15.2918 8.65948 16.4773 10.0003 16.9735C11.3412 16.4773 13.2323 15.2918 14.8166 13.6919C16.4863 12.0056 17.7087 9.9683 17.7087 7.91671C17.7087 5.73059 15.9364 3.95837 13.7503 3.95837C12.4121 3.95837 11.2287 4.62188 10.5113 5.64064C10.3943 5.80689 10.2037 5.90579 10.0003 5.90579C9.797 5.90579 9.60638 5.80689 9.48932 5.64064C8.7719 4.62188 7.58856 3.95837 6.25033 3.95837Z" fill="#FAFAFA"/>
</svg>
