<svg width="24" height="24" viewBox="0 0 24 24" fill="none" xmlns="http://www.w3.org/2000/svg">
<path d="M12.0002 22.1057C10.0015 22.1057 8.04769 21.513 6.38582 20.4026C4.72394 19.2922 3.42866 17.7139 2.66379 15.8673C1.89891 14.0207 1.69878 11.9888 2.08871 10.0285C2.47865 8.06816 3.44112 6.2675 4.85443 4.85419C6.26774 3.44088 8.06841 2.4784 10.0287 2.08847C11.989 1.69854 14.021 1.89867 15.8675 2.66354C17.7141 3.42842 19.2924 4.7237 20.4028 6.38557C21.5133 8.04745 22.106 10.0013 22.106 12C22.1031 14.6793 21.0374 17.2481 19.1429 19.1426C17.2483 21.0372 14.6796 22.1028 12.0002 22.1057ZM12.0002 3.57858C10.3346 3.57858 8.70645 4.07249 7.32155 4.99784C5.93666 5.9232 4.85726 7.23845 4.21986 8.77726C3.58247 10.3161 3.41569 12.0093 3.74064 13.6429C4.06558 15.2765 4.86764 16.7771 6.0454 17.9549C7.22316 19.1326 8.72371 19.9347 10.3573 20.2596C11.9909 20.5846 13.6842 20.4178 15.223 19.7804C16.7618 19.143 18.0771 18.0636 19.0024 16.6787C19.9278 15.2938 20.4217 13.6656 20.4217 12C20.4192 9.76726 19.5312 7.62666 17.9524 6.04786C16.3736 4.46907 14.233 3.58103 12.0002 3.57858ZM7.78954 13.6843C7.83164 15.3644 9.47382 17.895 12.0061 17.895C14.5385 17.895 16.211 15.3686 16.211 13.6843H7.78954ZM6.94739 10.3157V11.1579H10.316V10.3157C10.316 9.86902 10.1385 9.44062 9.82265 9.12475C9.50678 8.80889 9.07838 8.63143 8.63168 8.63143C8.18498 8.63143 7.75657 8.80889 7.44071 9.12475C7.12484 9.44062 6.94739 9.86902 6.94739 10.3157ZM13.6845 10.3157V11.1579H17.0531V10.3157C17.0531 9.86902 16.8757 9.44062 16.5598 9.12475C16.2439 8.80889 15.8155 8.63143 15.3688 8.63143C14.9221 8.63143 14.4937 8.80889 14.1779 9.12475C13.862 9.44062 13.6845 9.86902 13.6845 10.3157Z" fill="#727272"/>
</svg>
