<svg width="26" height="27" viewBox="0 0 26 27" fill="none" xmlns="http://www.w3.org/2000/svg">
<path d="M21.1411 11.5358L13.3873 5.09752C13.3227 5.03313 13.1288 4.96875 12.9996 4.96875C12.8704 4.96875 12.6765 5.03313 12.6119 5.09752L4.85807 11.5358C4.79346 11.6002 4.72884 11.6646 4.66422 11.729C4.59961 11.8577 4.59961 11.9865 4.59961 12.0509V22.3522C4.59961 22.5453 4.66422 22.6741 4.79346 22.8028C4.92269 22.9316 5.05192 22.996 5.24576 22.996H10.415C10.6088 22.996 10.7381 22.9316 10.8673 22.8028C10.9965 22.6741 11.0611 22.5453 11.0611 22.3522V17.2015C11.0611 16.6865 11.255 16.1714 11.6427 15.8495C12.0304 15.4632 12.4827 15.27 12.9996 15.27C13.5165 15.27 14.0335 15.4632 14.3565 15.8495C14.7442 16.2358 14.9381 16.6865 14.9381 17.2015V22.3522C14.9381 22.5453 15.0027 22.6741 15.1319 22.8028C15.2611 22.9316 15.3904 22.996 15.5842 22.996H20.7535C20.9473 22.996 21.0765 22.9316 21.2058 22.8028C21.335 22.6741 21.3996 22.5453 21.3996 22.3522V12.0509C21.3996 11.9865 21.3996 11.8577 21.335 11.7933C21.2704 11.6646 21.2704 11.6002 21.1411 11.5358ZM20.1073 21.7083H16.2304V17.2015C16.2304 16.3645 15.9073 15.5276 15.2611 14.9481C14.6796 14.3043 13.8396 13.9824 12.9996 13.9824C12.1596 13.9824 11.3196 14.3043 10.7381 14.9481C10.0919 15.5276 9.76884 16.3645 9.76884 17.2015V21.7083H5.89192V12.3728L12.9996 6.44956L20.1073 12.3728V21.7083Z" fill="#727272"/>
</svg>
