<svg width="26" height="26" viewBox="0 0 26 26" fill="none" xmlns="http://www.w3.org/2000/svg">
<path d="M21.2496 4.55005H9.84961C9.34961 4.55005 8.84961 4.95005 8.84961 5.55005V20.45C8.84961 21.05 9.34961 21.45 9.84961 21.45H21.2496C21.7496 21.45 22.2496 21.05 22.2496 20.45V5.55005C22.2496 4.95005 21.8496 4.55005 21.2496 4.55005ZM18.0496 10.75C17.8496 10.75 17.7496 10.75 17.5496 10.65C17.3496 10.55 17.0496 10.45 16.9496 10.45C16.9496 10.45 16.9496 10.45 16.9496 10.55V14.65C16.9496 15.85 15.9496 16.75 14.8496 16.75C13.6496 16.75 12.7496 15.85 12.7496 14.65C12.7496 13.55 13.7496 12.55 14.8496 12.55C15.1496 12.55 15.4496 12.65 15.6496 12.75V11.55C15.6496 10.95 15.4496 10.15 16.0496 9.65005C16.3496 9.35005 16.6496 9.25005 17.0496 9.25005C17.4496 9.25005 17.9496 9.35005 18.2496 9.65005C18.4496 9.95005 18.6496 10.65 18.0496 10.75ZM14.7496 13.85C14.2496 13.85 13.8496 14.25 13.8496 14.75C13.8496 15.25 14.2496 15.55 14.7496 15.55C15.1496 15.55 15.6496 15.25 15.6496 14.75C15.6496 14.25 15.2496 13.85 14.7496 13.85Z" fill="#FAFAFA"/>
<path d="M6.4502 18.95V7.05005" stroke="#FAFAFA" stroke-width="1.6" stroke-linecap="round"/>
<path d="M3.75 16.55V9.44995" stroke="#FAFAFA" stroke-width="1.6" stroke-linecap="round"/>
</svg>
